HIERARCHY
ROOT SimulationBone
{
	OFFSET 0.000000 0.000000 0.000000
	CHANNELS 6 Xposition Yposition Zposition Zrotation Yrotation Xrotation 
	JOINT Hips
	{
		OFFSET 0.000000 0.000000 0.000000
		CHANNELS 6 Xposition Yposition Zposition Zrotation Yrotation Xrotation 
		JOINT LeftUpLeg
		{
			OFFSET 0.103458 1.857838 10.548509
			CHANNELS 3 Zrotation Yrotation Xrotation
			JOINT LeftLeg
			{
				OFFSET 43.500004 -0.000038 -0.000002
				CHANNELS 3 Zrotation Yrotation Xrotation
				JOINT LeftFoot
				{
					OFFSET 42.372196 0.000015 0.000010
					CHANNELS 3 Zrotation Yrotation Xrotation
					JOINT LeftToe
					{
						OFFSET 17.300011 0.000003 -0.000006
						CHANNELS 3 Zrotation Yrotation Xrotation
						End Site
						{
							OFFSET 0.000000 0.000000 0.000000
						}
					}
				}
			}
		}
		JOINT RightUpLeg
		{
			OFFSET 0.103461 1.857837 -10.548498
			CHANNELS 3 Zrotation Yrotation Xrotation
			JOINT RightLeg
			{
				OFFSET 43.500046 -0.000042 0.000031
				CHANNELS 3 Zrotation Yrotation Xrotation
				JOINT RightFoot
				{
					OFFSET 42.372253 0.000011 -0.000004
					CHANNELS 3 Zrotation Yrotation Xrotation
					JOINT RightToe
					{
						OFFSET 17.299978 -0.000010 0.000025
						CHANNELS 3 Zrotation Yrotation Xrotation
						End Site
						{
							OFFSET 0.000000 0.000000 0.000000
						}
					}
				}
			}
		}
		JOINT Spine
		{
			OFFSET 6.901964 -2.603743 0.000001
			CHANNELS 3 Zrotation Yrotation Xrotation
			JOINT Spine1
			{
				OFFSET 12.588102 0.000002 0.000000
				CHANNELS 3 Zrotation Yrotation Xrotation
				JOINT Spine2
				{
					OFFSET 12.343204 0.000009 -0.000003
					CHANNELS 3 Zrotation Yrotation Xrotation
					JOINT Neck
					{
						OFFSET 25.832901 -0.000015 0.000002
						CHANNELS 3 Zrotation Yrotation Xrotation
						JOINT Head
						{
							OFFSET 11.766612 0.000023 -0.000003
							CHANNELS 3 Zrotation Yrotation Xrotation
							End Site
							{
								OFFSET 0.000000 0.000000 0.000000
							}
						}
					}
					JOINT LeftShoulder
					{
						OFFSET 19.745905 -1.480377 6.000110
						CHANNELS 3 Zrotation Yrotation Xrotation
						JOINT LeftArm
						{
							OFFSET 11.284127 -0.000004 -0.000022
							CHANNELS 3 Zrotation Yrotation Xrotation
							JOINT LeftForeArm
							{
								OFFSET 33.000050 -0.000022 0.000026
								CHANNELS 3 Zrotation Yrotation Xrotation
								JOINT LeftHand
								{
									OFFSET 25.200010 0.000035 0.000011
									CHANNELS 3 Zrotation Yrotation Xrotation
									End Site
									{
										OFFSET 0.000000 0.000000 0.000000
									}
								}
							}
						}
					}
					JOINT RightShoulder
					{
						OFFSET 19.746092 -1.480381 -6.000066
						CHANNELS 3 Zrotation Yrotation Xrotation
						JOINT RightArm
						{
							OFFSET 11.284147 -0.000020 -0.000017
							CHANNELS 3 Zrotation Yrotation Xrotation
							JOINT RightForeArm
							{
								OFFSET 33.000095 0.000005 0.000016
								CHANNELS 3 Zrotation Yrotation Xrotation
								JOINT RightHand
								{
									OFFSET 25.199768 0.000156 0.000415
									CHANNELS 3 Zrotation Yrotation Xrotation
									End Site
									{
										OFFSET 0.000000 0.000000 0.000000
									}
								}
							}
						}
					}
				}
			}
		}
	}
}
MOTION
Frames: 5
Frame Time: 0.016667
-159.533588 0.000000 152.660412 0.000000 97.037646 0.000000 -3.793535 80.919449 1.147237 87.233065 5.471670 -179.454064 173.016847 -11.076705 -179.459997 -104.516899 4.063306 -1.750972 93.536025 -0.125567 -9.005879 21.454555 0.003107 0.000012 153.716589 0.075709 -171.962457 -60.958037 1.884544 -5.139699 102.663596 3.177002 -3.334259 21.454551 -0.003092 0.000000 10.227265 1.976661 -0.571741 10.431176 3.996786 -0.963341 10.112291 3.990745 -0.987504 2.550273 -3.616860 0.894837 -19.596229 4.283544 -1.254931 168.890797 -74.345451 9.971922 5.291620 51.484035 45.556777 -53.946807 -20.990488 2.317183 1.814907 -18.961343 10.855112 -174.600698 79.616292 7.013168 -1.745709 -47.892934 -37.649313 -60.745236 17.914309 -2.325747 -4.861718 11.052928 -20.961231 
-159.520166 0.000000 148.012886 0.000000 97.079074 0.000000 -4.844005 81.029581 1.162341 86.839986 5.607853 -179.885978 167.253294 -9.847318 -179.707264 -105.914833 4.005046 -1.908014 94.622694 0.066835 -9.056596 21.454556 0.003107 0.000016 156.133229 -1.239807 -172.740486 -60.278172 1.620536 -4.618357 103.773279 2.864202 -3.243281 21.454554 -0.003081 0.000003 10.125700 1.987432 -0.215522 10.240345 3.986125 -0.254281 9.921404 3.984369 -0.278391 2.778477 -3.299991 0.380698 -19.434097 3.934039 -1.593664 169.135608 -74.200755 9.726616 7.490003 50.999727 47.662401 -54.831578 -20.489330 2.315113 0.723625 -14.134778 14.865220 -173.277492 79.250905 8.355550 -2.797622 -48.771070 -32.070018 -64.374427 17.381425 -2.405645 -5.498067 13.381152 -19.392623 
-159.514641 0.000000 143.413486 0.000000 97.113822 0.000000 -5.613402 81.397331 1.151334 86.666753 5.402783 -179.949207 161.893775 -8.169405 -179.995415 -105.438784 3.943499 -2.175379 95.199422 0.288118 -9.111327 21.454557 0.003106 0.000018 159.382396 -2.036414 -173.308086 -58.672280 1.395963 -4.140043 104.135495 2.573315 -3.155812 21.454555 -0.003084 0.000003 10.047808 1.935365 0.033033 10.092457 3.860451 0.235016 9.773568 3.861655 0.211658 2.812260 -3.606031 -0.037570 -19.266698 4.380859 -2.235711 170.489676 -74.252328 8.338886 9.572890 50.478461 50.501670 -55.798427 -20.166890 2.327696 -0.361002 -11.437823 19.542049 -170.902083 79.646427 10.773397 -3.200866 -50.397615 -26.961536 -69.145972 16.126326 -2.535053 -6.053054 14.540143 -19.069823 
-159.515813 0.000000 138.860964 0.000000 97.141909 0.000000 -6.129599 81.995804 1.130141 86.663500 5.007601 -179.787342 157.122414 -6.327368 179.675816 -103.218080 3.787917 -2.468548 95.378647 0.524903 -9.016944 21.454556 0.003105 0.000018 163.294968 -2.562362 -173.869715 -56.179582 1.297294 -3.639230 103.594746 2.239170 -3.133204 21.454553 -0.003094 0.000002 9.978973 1.839587 0.216827 9.959586 3.653667 0.591580 9.640801 3.657032 0.569467 2.963125 -4.158824 -0.420797 -19.224768 5.175227 -3.010249 172.259292 -74.431976 6.521686 11.683881 49.969234 53.847301 -56.656439 -19.991024 2.346627 -1.300143 -10.275565 23.774428 -168.232836 80.305211 13.486633 -3.187983 -52.204993 -22.264526 -74.398789 14.267419 -2.637216 -6.954500 15.030532 -19.911520 
-159.522483 0.000000 134.354070 0.000000 97.163355 0.000000 -6.420509 82.798103 1.114449 86.779111 4.570883 -179.545804 153.130122 -4.601003 179.373636 -99.378534 3.444866 -2.716225 95.274103 0.764505 -8.619923 21.454557 0.003104 0.000018 167.716962 -3.043301 -174.647076 -52.834494 1.405300 -3.037187 101.996300 1.793355 -3.232596 21.454551 -0.003101 -0.000000 9.904776 1.719485 0.378732 9.814423 3.400646 0.902393 9.495758 3.405902 0.881807 3.537570 -4.577664 -0.832413 -19.428461 5.864132 -3.751127 173.733416 -74.688429 5.005290 13.985418 49.519820 57.487857 -57.214622 -19.930045 2.363551 -1.907298 -10.134073 26.399840 -166.600183 80.761297 15.143190 -2.819781 -53.598019 -18.057511 -79.484031 11.928830 -2.678600 -8.594985 15.333379 -21.844596 
